# xmcd CD database file
#
# Track frame offsets:
#	150
#	20021
#	31106
#	42473
#	54958
#	65588
#	81058
#	89776
#	100581
#	114693
#	126741
#	140976
#
# Disc length: 2012 seconds
#
# Revision: 1
# Processed by: cddbd v1.5.1PL0 Copyright (c) Steve Scherf et al.
# Submitted via: CDex 1.51
#
DISCID=af07da0c
DTITLE=Elis regina - Definitivamente MPB cd 01
DYEAR=1999
DGENRE=MPB
TTITLE0=Dois pra la dois pra ca-J Bosco Aldir Blanc
TTITLE1=Mucuripe-Fagner Belchior
TTITLE2=Olhos abertos-Ze Rodrix e Guarabyra
TTITLE3=Arrastao-Edu e Vinicius
TTITLE4=O sonho-Egberto Gismonti
TTITLE5=La nuit de mon amour-Dolores Duran
TTITLE6=Deixa-Baden Vinicius
TTITLE7=Vida de bailarina-Americo Seixas e Dorival Silva
TTITLE8=O mestre sala dos mares-J Bosco e Aldir Blanc
TTITLE9=Madalena-Ivan Lins e Ronaldo Monteiro
TTITLE10=20 anos blue-Sueli Costa e Vitor Martins
TTITLE11=Menino das laranjas-Theo
EXTD=YEAR: 1999
EXTT0=
EXTT1=
EXTT2=
EXTT3=
EXTT4=
EXTT5=
EXTT6=
EXTT7=
EXTT8=
EXTT9=
EXTT10=
EXTT11=
PLAYORDER=
